<svg xmlns="http://www.w3.org/2000/svg" width="400" height="400" viewBox="0 0 400 400"><rect width="100%" height="100%" fill="#eee"/><path d="M 350.7,205.2 L 347.8,197.4 L 344.7,189.7 L 341.5,182.4 L 338.2,175.4 L 334.9,168.8 L 331.5,162.6 L 327.9,156.6 L 324.2,150.6 L 320.3,144.7 L 316.1,139.1 L 311.7,133.6 L 307.0,128.1 L 301.8,122.6 L 295.8,117.3 L 289.4,112.6 L 282.6,108.8 L 275.4,106.0 L 268.1,103.9 L 260.6,102.4 L 253.1,101.3 L 245.5,100.3 L 238.1,99.4 L 230.9,98.6 L 223.9,97.8 L 217.1,97.1 L 210.1,96.6 L 202.9,96.3 L 195.4,96.2 L 187.9,96.2 L 180.8,96.3 L 173.9,96.6 L 167.1,97.1 L 160.4,97.8 L 153.7,98.6 L 147.1,99.5 L 140.6,100.4 L 134.3,101.4 L 127.9,102.5 L 121.5,103.7 L 115.0,105.0 L 108.1,106.5 L 100.9,108.1 L 93.6,110.2 L 86.6,112.8 L 80.2,116.0 L 74.4,120.1 L 69.1,125.1 L 64.5,131.0 L 60.6,137.7 L 57.4,144.7 L 54.7,151.9 L 52.4,159.0 L 50.4,166.2 L 48.6,173.2 L 47.1,180.3 L 45.6,187.5 L 44.2,194.9 L 43.0,202.6 L 42.0,210.3 L 41.3,218.0 L 40.9,225.6 L 40.6,233.1 L 40.6,240.2 L 40.9,247.2 L 41.7,254.1 L 43.3,260.9 L 45.8,267.5 L 49.7,273.5 L 55.0,278.7 L 61.5,282.7 L 68.6,285.9 L 76.0,288.5 L 83.2,290.6 L 90.4,292.5 L 97.7,294.2 L 105.0,295.6 L 112.3,296.7 L 119.4,297.8 L 126.1,298.8 L 132.7,299.7 L 139.5,300.4 L 146.6,301.1 L 153.7,301.7 L 160.5,302.3 L 166.7,302.7 L 172.5,303.1 L 178.4,303.3 L 184.7,303.5 L 191.6,303.7 L 198.7,303.7 L 205.5,303.7 L 211.7,303.6 L 217.6,303.3 L 223.6,302.9 L 229.9,302.4 L 236.3,301.9 L 242.9,301.3 L 249.5,300.5 L 256.1,299.6 L 262.9,298.4 L 269.9,297.1 L 277.3,295.6 L 285.0,294.0 L 292.8,292.2 L 300.5,290.1 L 308.2,287.7 L 315.8,285.2 L 323.2,282.4 L 330.4,279.2 L 337.4,275.6 L 344.0,271.3 L 349.7,266.1 L 354.2,259.8 L 356.9,252.6 L 358.0,244.7 L 357.9,236.7 L 356.9,228.7 L 355.4,220.9 L 353.3,213.1 Z" fill="#ccc" stroke="red" stroke-width="2"/></svg>