<svg xmlns="http://www.w3.org/2000/svg" width="400" height="400" viewBox="0 0 400 400"><rect width="100%" height="100%" fill="#eee"/><path d="M 356.1,202.4 L 354.8,194.1 L 353.2,186.1 L 351.4,178.2 L 349.2,170.6 L 346.8,163.0 L 343.7,155.4 L 339.9,148.0 L 335.2,141.1 L 329.6,135.2 L 323.3,130.2 L 316.8,126.2 L 310.0,122.6 L 303.0,119.5 L 296.0,116.8 L 289.0,114.6 L 282.4,112.6 L 276.2,110.7 L 270.0,108.8 L 263.7,107.1 L 257.3,105.7 L 251.1,104.5 L 245.0,103.3 L 239.3,102.1 L 233.7,101.0 L 228.0,99.9 L 221.9,99.0 L 215.4,98.2 L 208.8,97.4 L 202.0,96.7 L 194.9,96.2 L 187.9,96.0 L 181.1,96.0 L 174.6,96.2 L 168.2,96.3 L 161.6,96.4 L 154.9,96.7 L 148.0,97.2 L 141.1,97.9 L 134.3,98.9 L 127.4,100.2 L 120.1,101.7 L 112.4,103.6 L 104.3,105.9 L 95.9,108.6 L 87.6,111.7 L 79.4,115.2 L 71.6,119.2 L 64.3,123.8 L 57.9,129.4 L 52.6,135.7 L 48.7,142.8 L 45.9,150.4 L 44.1,158.4 L 42.9,166.7 L 42.0,175.0 L 41.4,183.4 L 40.9,191.7 L 40.7,200.1 L 40.7,208.8 L 41.0,217.5 L 41.6,226.2 L 42.7,234.6 L 44.5,242.7 L 47.3,250.3 L 51.2,257.5 L 56.3,263.9 L 62.4,269.5 L 69.3,274.2 L 76.5,278.1 L 83.6,281.4 L 90.4,284.1 L 96.9,286.4 L 103.4,288.5 L 110.1,290.3 L 117.0,292.0 L 123.9,293.6 L 130.8,295.0 L 137.4,296.4 L 143.8,297.6 L 149.8,298.6 L 155.4,299.4 L 160.6,300.1 L 165.4,300.6 L 170.0,301.0 L 174.7,301.4 L 179.9,302.0 L 185.8,302.6 L 192.3,303.2 L 199.0,303.6 L 205.2,303.6 L 210.6,303.5 L 215.1,303.2 L 219.2,303.0 L 223.4,302.7 L 228.0,302.4 L 233.2,302.1 L 239.0,301.7 L 245.2,301.4 L 251.5,300.8 L 258.0,300.1 L 264.5,299.0 L 271.1,297.8 L 278.1,296.4 L 285.5,294.8 L 293.5,293.0 L 301.9,291.0 L 310.4,288.7 L 318.8,285.9 L 327.1,282.6 L 334.9,278.6 L 342.1,273.8 L 348.2,268.0 L 353.0,261.1 L 356.2,253.3 L 358.0,244.9 L 358.6,236.3 L 358.5,227.7 L 357.9,219.2 L 357.1,210.8 Z" fill="#ccc" stroke="red" stroke-width="2"/></svg>