<svg xmlns="http://www.w3.org/2000/svg" width="400" height="400" viewBox="0 0 400 400"><rect width="100%" height="100%" fill="#eee"/><path d="M 356.1,204.2 L 353.9,196.6 L 351.2,189.5 L 348.3,182.9 L 345.0,176.7 L 341.6,170.8 L 337.9,165.2 L 334.3,160.1 L 330.7,155.3 L 327.0,150.8 L 322.8,146.4 L 318.2,141.9 L 313.1,137.4 L 307.8,133.0 L 302.5,128.9 L 297.2,125.3 L 291.9,121.9 L 286.2,118.7 L 280.2,115.5 L 274.0,112.5 L 267.9,109.9 L 261.9,107.7 L 256.0,106.0 L 250.0,104.5 L 243.7,103.1 L 237.1,101.6 L 230.7,100.2 L 224.4,98.8 L 218.4,97.7 L 212.4,96.9 L 206.0,96.7 L 199.5,97.0 L 193.0,97.6 L 187.0,98.3 L 181.4,99.0 L 175.9,99.8 L 170.4,100.7 L 164.6,101.7 L 158.5,103.1 L 152.1,104.9 L 145.8,106.8 L 139.8,108.9 L 133.8,111.1 L 127.9,113.8 L 121.7,117.0 L 115.4,120.8 L 109.0,124.8 L 102.9,129.0 L 97.2,133.3 L 91.8,137.8 L 86.7,142.5 L 81.8,147.2 L 77.0,151.9 L 72.4,156.9 L 67.8,162.1 L 63.4,167.8 L 59.2,174.0 L 55.1,180.6 L 51.3,187.6 L 47.8,195.0 L 44.9,202.7 L 42.8,210.5 L 41.8,218.1 L 42.1,225.6 L 43.6,232.6 L 46.4,239.2 L 50.3,245.3 L 55.1,250.8 L 60.5,255.8 L 66.4,260.4 L 72.5,264.6 L 78.6,268.5 L 84.6,272.2 L 90.8,275.6 L 97.2,278.7 L 103.6,281.5 L 110.0,284.1 L 116.3,286.6 L 122.6,289.0 L 128.8,291.1 L 134.9,292.9 L 141.0,294.4 L 147.1,295.8 L 153.1,297.1 L 158.9,298.5 L 164.8,299.8 L 170.9,300.9 L 177.2,301.7 L 183.8,302.3 L 190.8,302.8 L 198.2,303.1 L 205.7,303.2 L 212.8,303.0 L 219.4,302.5 L 225.6,302.0 L 231.6,301.3 L 237.9,300.6 L 244.5,299.7 L 251.1,298.6 L 257.5,297.3 L 263.7,295.6 L 269.7,293.8 L 275.7,291.8 L 281.9,289.6 L 288.5,287.2 L 295.3,284.7 L 302.0,282.1 L 308.5,279.4 L 314.7,276.3 L 320.9,272.9 L 327.2,268.9 L 333.6,264.4 L 339.7,259.4 L 345.3,254.0 L 350.1,248.2 L 353.9,242.1 L 356.5,235.5 L 358.0,228.1 L 358.3,220.2 L 357.6,212.1 Z" fill="#ccc" stroke="red" stroke-width="2"/></svg>