<svg xmlns="http://www.w3.org/2000/svg" width="400" height="400" viewBox="0 0 400 400"><rect width="100%" height="100%" fill="#eee"/><path d="M 351.4,201.8 L 349.1,193.4 L 346.7,185.4 L 344.5,177.8 L 342.4,170.6 L 340.1,163.5 L 337.6,156.2 L 334.7,148.9 L 331.4,141.6 L 327.9,134.5 L 324.0,127.7 L 319.4,121.3 L 313.8,115.6 L 307.0,110.9 L 299.5,107.4 L 291.5,105.0 L 283.4,103.4 L 275.6,102.2 L 268.0,101.4 L 260.7,100.7 L 253.7,100.2 L 246.9,99.7 L 240.0,99.1 L 232.9,98.6 L 225.7,98.1 L 218.4,97.7 L 211.1,97.5 L 203.7,97.3 L 196.3,97.0 L 189.0,96.7 L 182.0,96.4 L 175.3,96.3 L 169.0,96.4 L 162.9,96.7 L 156.8,97.1 L 150.3,97.5 L 143.3,97.9 L 135.8,98.3 L 128.1,98.8 L 120.2,99.2 L 112.2,99.7 L 104.2,100.3 L 96.1,101.0 L 88.0,101.9 L 79.8,103.2 L 71.8,104.9 L 64.1,107.4 L 57.5,111.3 L 52.3,116.9 L 48.7,123.8 L 46.3,131.6 L 44.8,139.6 L 43.6,147.5 L 42.7,155.1 L 41.9,162.5 L 41.3,169.7 L 40.8,176.8 L 40.4,184.0 L 40.2,191.6 L 40.1,199.6 L 40.0,208.1 L 40.0,216.9 L 40.0,225.7 L 40.1,234.2 L 40.2,242.3 L 40.4,250.1 L 40.9,257.9 L 41.8,265.6 L 43.6,273.1 L 46.8,279.9 L 51.6,285.6 L 58.0,289.7 L 65.6,292.6 L 73.7,294.4 L 82.1,295.8 L 90.5,296.9 L 98.8,297.7 L 106.8,298.4 L 114.6,298.9 L 122.0,299.4 L 129.0,299.8 L 135.7,300.2 L 142.0,300.7 L 148.0,301.2 L 153.9,301.7 L 160.0,302.2 L 166.4,302.7 L 173.1,303.2 L 180.0,303.4 L 187.2,303.5 L 194.4,303.4 L 201.4,303.3 L 208.1,303.2 L 214.4,303.3 L 220.3,303.4 L 226.2,303.4 L 232.4,303.3 L 239.2,302.9 L 246.5,302.4 L 254.2,301.8 L 262.2,301.2 L 270.6,300.6 L 279.2,299.9 L 288.0,299.1 L 296.8,298.2 L 305.6,297.1 L 314.4,295.9 L 323.3,294.3 L 331.8,292.1 L 339.6,288.6 L 346.2,283.5 L 351.2,276.9 L 354.8,269.1 L 357.1,260.7 L 358.2,252.0 L 358.3,243.5 L 357.8,235.2 L 356.7,227.0 L 355.3,218.7 L 353.5,210.3 Z" fill="#ccc" stroke="red" stroke-width="2"/></svg>