<?xml version="1.0" encoding="UTF-8" standalone="no"?>
<!-- Created with Inkscape (http://www.inkscape.org/) -->

<svg
   version="1.1"
   id="svg1"
   width="246"
   height="157"
   viewBox="0 0 246 157"
   sodipodi:docname="lenses01.svg"
   inkscape:version="1.4.3 (0d15f75, 2025-12-25)"
   xmlns:inkscape="http://www.inkscape.org/namespaces/inkscape"
   xmlns:sodipodi="http://sodipodi.sourceforge.net/DTD/sodipodi-0.dtd"
   xmlns="http://www.w3.org/2000/svg"
   xmlns:svg="http://www.w3.org/2000/svg">
  <defs
     id="defs1" />
  <sodipodi:namedview
     id="namedview1"
     pagecolor="#ffffff"
     bordercolor="#000000"
     borderopacity="0.25"
     inkscape:showpageshadow="2"
     inkscape:pageopacity="0.0"
     inkscape:pagecheckerboard="0"
     inkscape:deskcolor="#d1d1d1"
     inkscape:zoom="5.1401274"
     inkscape:cx="122.95415"
     inkscape:cy="78.5"
     inkscape:window-width="1920"
     inkscape:window-height="1009"
     inkscape:window-x="-8"
     inkscape:window-y="-8"
     inkscape:window-maximized="1"
     inkscape:current-layer="g1" />
  <g
     inkscape:groupmode="layer"
     inkscape:label="Image"
     id="g1">
    <path
       style="fill:#000000"
       d="m 86.5,138 -6,-0.66378 6,-0.33622 6,-0.33622 -6,-0.66543 c -3.3,-0.36599 1.65,-0.45278 11,-0.19288 9.35,0.25991 17.1875,0.63501 17.41667,0.83355 0.22916,0.19854 -4.72084,0.45074 -11,0.56045 L 92.5,137.39893 104,138 l 11.5,0.60107 -11.5,0.0314 C 97.675,138.64967 89.8,138.36508 86.5,138 Z m 56.27643,0.2665 c 2.35204,-0.21124 5.95204,-0.20827 8,0.007 2.04796,0.21487 0.12357,0.38771 -4.27643,0.38408 -4.4,-0.004 -6.07561,-0.17944 -3.72357,-0.39069 z m 16.99148,-0.99123 c 1.79735,-0.22256 4.49735,-0.21797 6,0.0102 1.50265,0.22818 0.0321,0.41027 -3.26791,0.40466 -3.3,-0.006 -4.52944,-0.1923 -2.73209,-0.41486 z M 61.633351,135.35702 C 48.522419,133.46173 46.467896,132.31467 44.536759,125.81183 42.913848,120.34689 42.418621,114.06214 44,119 l 0.80064,2.5 0.165491,-2.5 c 0.110178,-1.66441 0.653192,-0.68589 1.624639,2.92761 0.802531,2.98519 1.950335,6.01946 2.550677,6.74282 1.354608,1.63221 6.38885,2.98643 14.858553,3.997 6.414385,0.76533 6.447314,0.78476 2.5,1.47482 -2.683603,0.46914 -1.367206,0.60419 4,0.41037 5.225636,-0.18871 6.612818,-0.0521 4,0.39391 l -4,0.68282 4.5,0.51062 4.5,0.51062 -4,0.0664 c -2.2,0.0365 -8.439992,-0.57547 -13.866649,-1.35994 z m 1.283316,-1.72155 C 62.6875,133.43498 60.025,133.01474 57,132.70162 c -3.550563,-0.36753 -4.613892,-0.27366 -3,0.26485 2.477654,0.82671 9.717846,1.36993 8.916667,0.669 z M 49,130 c -1.1,-1.1 -2,-2.525 -2,-3.16667 0,-0.64166 -0.285956,-0.88071 -0.635458,-0.5312 C 45.563349,127.10332 48.707428,132 50.023053,132 50.560374,132 50.1,131.1 49,130 Z m -3.316886,-7.1875 c -0.319226,-0.79773 -0.556183,-0.56078 -0.604167,0.60417 -0.04342,1.05416 0.192928,1.64479 0.52522,1.3125 0.332291,-0.3323 0.367818,-1.1948 0.07895,-1.91667 z M 142.75,136.26779 c 2.3375,-0.21053 6.1625,-0.21053 8.5,0 2.3375,0.21054 0.425,0.3828 -4.25,0.3828 -4.675,0 -6.5875,-0.17226 -4.25,-0.3828 z m 29.5,0.0429 c 0.9625,-0.25152 2.5375,-0.25152 3.5,0 0.9625,0.25153 0.175,0.45733 -1.75,0.45733 -1.925,0 -2.7125,-0.2058 -1.75,-0.45733 z m -12,-1.02692 c 1.5125,-0.22913 3.9875,-0.22913 5.5,0 1.5125,0.22912 0.275,0.41659 -2.75,0.41659 -3.025,0 -4.2625,-0.18747 -2.75,-0.41659 z m 14.25,-0.30209 c -2.75905,-0.49521 -1.51809,-0.62832 4,-0.42904 5.32649,0.19235 6.66325,0.0568 4,-0.40554 l -4,-0.69444 5.73122,-0.73285 c 10.54636,-1.34856 15.80344,-2.87807 18.92757,-5.50686 9.0792,-7.63964 23.78373,-51.848778 25.54454,-76.799601 0.46486,-6.587211 0.17286,-9.462287 -1.53063,-15.070652 -2.39539,-7.886304 -5.02099,-10.881492 -10.70582,-12.212792 -3.7412,-0.876133 -3.79621,-0.940368 -0.96688,-1.129114 2.96579,-0.197849 2.97149,-0.209262 0.5,-1.000771 -2.05393,-0.657784 -2.14314,-0.814507 -0.5,-0.878358 2.81765,-0.109491 10.5,3.537394 10.5,4.984454 0,0.774054 -0.65292,0.612994 -1.82874,-0.451108 C 223.16545,23.744744 221.94032,23 221.44875,23 c -0.49157,0 0.21887,0.784214 1.57874,1.742697 1.35988,0.958483 2.92251,1.745983 3.47251,1.75 1.79954,0.01314 5.42761,12.732532 5.4646,19.15793 0.13294,23.096605 -15.63894,73.185243 -26.12406,82.965263 -3.30045,3.0785 -8.63113,5.478 -11.73976,5.28443 C 193.22035,133.8455 193.625,133.44035 195,133 c 2.02191,-0.64753 2.11753,-0.80868 0.5,-0.84269 -1.1,-0.0231 -3.8,0.33027 -6,0.78532 l -4,0.82737 3.5,0.23 3.5,0.23 -4,0.82737 c -4.61932,0.95547 -8.36779,0.9352 -14,-0.0757 z m 27.05887,-4.53683 c 1.91007,-1.53028 1.90913,-1.54044 -0.0589,-0.63512 -1.1,0.50602 -2.675,1.17032 -3.5,1.47622 -1.29574,0.48044 -1.28773,0.56693 0.0589,0.63512 0.85738,0.0434 2.43238,-0.62087 3.5,-1.47622 z M 207,126 c 1.1749,-1.65 1.91119,-3 1.63619,-3 -0.275,0 -1.46129,1.35 -2.63619,3 -1.1749,1.65 -1.91119,3 -1.63619,3 0.275,0 1.46129,-1.35 2.63619,-3 z m 5.80687,-10.52646 c -0.30789,-0.30789 -0.86705,0.24711 -1.24258,1.23333 -0.54268,1.4252 -0.42782,1.54006 0.5598,0.5598 0.68342,-0.67834 0.99067,-1.48524 0.68278,-1.79313 z M 215.92913,108.5 c 0,-0.55 -0.64311,0.125 -1.42913,1.5 -0.78602,1.375 -1.42913,2.95 -1.42913,3.5 0,0.55 0.64311,-0.125 1.42913,-1.5 0.78602,-1.375 1.42913,-2.95 1.42913,-3.5 z m 2.49766,-6.5 c 0.46475,-1.73748 0.38603,-2.042487 -0.25808,-1 -0.50973,0.825 -1.2277,2.625 -1.5955,4 -0.46475,1.73748 -0.38603,2.04249 0.25808,1 0.50973,-0.825 1.2277,-2.625 1.5955,-4 z m 2.48761,-7 c -0.0362,-0.989055 -0.34772,-0.81874 -0.9144,0.5 -1.18132,2.749085 -1.18132,4.327966 0,2.5 0.53316,-0.825 0.94464,-2.175 0.9144,-3 z m 4.6567,-15.5 c 1.33312,-4.95 2.40452,-9.9 2.38089,-11 -0.0354,-1.6478 -4.21814,12.994557 -6.42736,22.5 l -0.58105,2.5 1.10183,-2.5 c 0.60601,-1.375 2.19257,-6.55 3.52569,-11.5 z m 3.09118,-16.75 c -0.27741,-0.6875 -0.50439,-0.125 -0.50439,1.25 0,1.375 0.22698,1.9375 0.50439,1.25 0.27741,-0.6875 0.27741,-1.8125 0,-2.5 z M 230.85559,46 c 0.002,-3.575 -0.30203,-7.259025 -0.67588,-8.186722 -0.37384,-0.927697 -0.69915,4.022303 -0.72291,11 -0.029,8.520118 0.19295,11.208821 0.67587,8.186722 0.3955,-2.475 0.72081,-7.425 0.72292,-11 z m -2.86032,-14.712324 c -1.08961,-1.699289 -1.11783,-1.697108 -0.57078,0.04411 0.31653,1.007484 0.61104,2.357484 0.65446,3 0.057,0.84316 0.21579,0.830886 0.57077,-0.04411 0.27051,-0.666778 -0.024,-2.016778 -0.65445,-3 z m -7.2661,-8.891843 c -0.3323,-0.332291 -1.1948,-0.367818 -1.91667,-0.07895 -0.79773,0.319226 -0.56078,0.556183 0.60417,0.604167 1.05416,0.04342 1.64479,-0.192928 1.3125,-0.52522 z M 41.564401,109.70468 c -0.443905,-3.73742 -0.527493,-7.07492 -0.185751,-7.41666 0.341743,-0.34175 0.692047,1.36615 0.778454,3.79531 l 0.157103,4.41667 0.601829,-5 0.601829,-5 0.761629,7.39611 c 0.418895,4.06785 0.527376,7.63035 0.241067,7.91666 -0.286309,0.28631 -0.5798,-1.01694 -0.652202,-2.8961 L 43.736718,109.5 43.05411,113 c -0.618382,3.17069 -0.758547,2.86064 -1.489709,-3.29532 z m -1.12826,-10.010497 c -0.302353,-0.78792 -0.382417,-3.853942 -0.177919,-6.813382 L 40.630035,87.5 l 0.35309,6 0.35309,6 0.663785,-6 0.663785,-6 0.168107,6.190983 c 0.158194,5.825858 -1.1785,9.175307 -2.395751,6.0032 z M 39.416832,64.5 c 9.61e-4,-10.45 0.149144,-14.589126 0.329296,-9.198059 0.180152,5.391068 0.179366,13.941068 -0.0017,19 C 39.563268,79.360874 39.415871,74.95 39.416832,64.5 Z m 1.996345,0 c 0.001,-9.9 0.150701,-13.814738 0.33256,-8.699419 0.181859,5.11532 0.181001,13.21532 -0.0019,18 C 41.560922,78.585262 41.412129,74.4 41.413177,64.5 Z M 40.599256,35.741525 c 0.186696,-4.267161 0.841725,-8.696989 1.45562,-9.844061 2.073574,-3.874509 9.485737,-6.260186 19.445124,-6.258603 5.706124,9.07e-4 7.536055,-0.215564 5,-0.591471 l -4,-0.592902 5.5,-0.718552 C 75.080875,16.810849 80.020711,17.011531 74.5,18 l -4,0.716189 4.5,0.248035 c 3.641868,0.200736 2.688388,0.503268 -5,1.586462 C 59.360478,22.049658 56.29193,22.187532 60,21 l 2.5,-0.80064 -2.5,-0.0037 c -1.375,-0.002 -4.75,0.603404 -7.5,1.345401 l -5,1.349084 4.5,-0.420568 4.5,-0.420568 -4.980685,1.430725 c -5.224936,1.500888 -7.441524,3.521827 -7.635316,6.961379 -0.0907,1.609838 -0.213541,1.688631 -0.563232,0.361277 -0.245976,-0.933675 0.05605,-2.733675 0.671168,-4 1.050946,-2.163548 1.027116,-2.188772 -0.39512,-0.418235 -1.13366,1.411288 -1.427307,3.795573 -1.170017,9.5 0.266768,5.914546 0.189018,6.49889 -0.348046,2.615828 l -0.691548,-5 -0.563698,5 c -0.332754,2.951534 -0.424627,1.821406 -0.22425,-2.758475 z m 6.927205,-12.548397 c -0.307887,-0.307887 -1.114794,-6.34e-4 -1.793128,0.682784 -0.980267,0.987616 -0.865403,1.10248 0.559795,0.559795 0.986221,-0.375531 1.541221,-0.934692 1.233333,-1.242579 z M 200,20.468901 c -7.00365,-1.153722 -7.20219,-1.252602 -3,-1.494099 L 201.5,18.716189 197.5,18 c -5.34602,-0.957191 -1.08814,-1.1922 5.11043,-0.282063 L 207.5,18.435874 204,19.164375 c -2.63479,0.548414 -2.01678,0.658753 2.5,0.446351 3.3,-0.155184 4.875,-0.06518 3.5,0.200007 l -2.5,0.482158 2.5,0.753874 2.5,0.753875 -2.5,-0.04813 c -1.375,-0.02647 -5.875,-0.604096 -10,-1.283613 z M 83.75,18.276604 c 1.7875,-0.221826 4.7125,-0.221826 6.5,0 1.7875,0.221827 0.325,0.403322 -3.25,0.403322 -3.575,0 -5.0375,-0.181495 -3.25,-0.403322 z M 177.5,18 l -6,-0.663785 6,-0.340706 6,-0.340707 L 177,16 l -6.5,-0.654802 5.5,-0.06406 c 3.025,-0.03524 8.2,0.270935 11.5,0.68038 l 6,0.744445 -5.5,0.304124 -5.5,0.304125 5,0.685793 5,0.685793 -4.5,-0.011 C 185.525,18.668736 180.8,18.365082 177.5,18 Z M 97.767909,17.275269 c 1.79735,-0.222562 4.497351,-0.217969 6.000001,0.0102 1.50265,0.228174 0.0321,0.41027 -3.26791,0.404657 -3.3,-0.0056 -4.529441,-0.192301 -2.732091,-0.414862 z M 82.727696,16.278268 c 1.775232,-0.220912 4.925232,-0.224542 7,-0.0081 C 91.802463,16.486677 90.35,16.667423 86.5,16.67186 c -3.85,0.0044 -5.547537,-0.17268 -3.772304,-0.393592 z m 29.048734,-0.01177 c 2.35204,-0.211245 5.95204,-0.208273 8,0.0066 2.04796,0.214878 0.12357,0.387715 -4.27643,0.384083 -4.4,-0.0036 -6.07561,-0.179441 -3.72357,-0.390687 z m 47,0 c 2.35204,-0.211245 5.95204,-0.208273 8,0.0066 2.04796,0.214878 0.12357,0.387715 -4.27643,0.384083 -4.4,-0.0036 -6.07561,-0.179441 -3.72357,-0.390687 z M 96.727696,15.278268 c 1.775232,-0.220912 4.925234,-0.224542 7.000004,-0.0081 2.07476,0.216475 0.6223,0.397221 -3.2277,0.401658 -3.85,0.0044 -5.547537,-0.17268 -3.772304,-0.393592 z M 111.75,14.267795 c 2.3375,-0.210535 6.1625,-0.210535 8.5,0 2.3375,0.210535 0.425,0.382791 -4.25,0.382791 -4.675,0 -6.5875,-0.172256 -4.25,-0.382791 z m 47.02643,-0.0013 c 2.35204,-0.211245 5.95204,-0.208273 8,0.0066 2.04796,0.214878 0.12357,0.387715 -4.27643,0.384083 -4.4,-0.0036 -6.07561,-0.179441 -3.72357,-0.390687 z"
       id="path1" />
  </g>
</svg>
