<svg xmlns="http://www.w3.org/2000/svg" width="400" height="400" viewBox="0 0 400 400"><rect width="100%" height="100%" fill="#eee"/><path d="M 359.4,196.0 L 358.9,187.1 L 358.0,179.1 L 356.7,171.8 L 354.7,165.1 L 352.2,158.5 L 349.1,151.9 L 345.2,145.3 L 340.7,138.5 L 335.9,131.8 L 331.2,125.2 L 326.6,118.7 L 322.0,112.1 L 316.8,105.3 L 311.2,98.4 L 305.4,91.5 L 299.4,84.6 L 293.6,78.0 L 287.8,71.9 L 282.2,66.3 L 276.4,61.3 L 270.5,56.8 L 264.2,52.9 L 257.4,49.7 L 250.4,47.4 L 243.1,46.0 L 235.6,45.2 L 228.0,44.9 L 220.1,44.8 L 211.9,44.9 L 203.9,44.9 L 195.9,45.1 L 188.1,45.3 L 180.4,45.6 L 172.8,45.9 L 165.4,46.5 L 158.3,47.4 L 151.6,48.9 L 144.9,50.9 L 138.2,53.4 L 131.2,56.6 L 124.2,60.7 L 117.4,65.6 L 110.8,71.2 L 104.3,77.4 L 98.0,84.1 L 91.8,91.1 L 85.4,98.2 L 79.1,105.2 L 73.1,112.1 L 67.6,118.8 L 62.5,125.3 L 57.6,131.7 L 52.8,138.2 L 48.5,145.1 L 45.2,152.6 L 43.0,160.7 L 41.8,169.1 L 41.2,177.5 L 40.8,185.9 L 40.6,194.2 L 40.5,202.6 L 40.4,211.0 L 40.5,219.5 L 40.7,228.0 L 41.2,236.3 L 42.2,244.5 L 43.8,252.4 L 46.2,260.1 L 49.6,267.4 L 54.0,274.5 L 59.6,281.5 L 65.8,288.3 L 72.4,294.9 L 79.0,301.3 L 85.7,307.3 L 92.4,313.2 L 99.3,319.2 L 106.2,325.2 L 113.1,331.2 L 120.0,337.0 L 126.8,342.2 L 133.9,346.6 L 141.4,350.1 L 149.4,352.5 L 157.7,354.1 L 165.9,354.9 L 174.2,355.3 L 182.3,355.3 L 190.4,355.1 L 198.4,355.0 L 206.4,355.0 L 214.4,354.8 L 222.5,354.4 L 230.4,353.9 L 238.3,353.2 L 246.1,352.1 L 253.8,350.5 L 261.4,348.3 L 268.7,345.1 L 275.7,340.7 L 282.5,335.4 L 289.2,329.3 L 295.9,322.8 L 302.8,316.4 L 309.6,309.9 L 316.2,303.3 L 322.7,296.5 L 329.0,289.5 L 335.1,282.4 L 341.0,275.3 L 346.4,268.2 L 351.0,261.2 L 354.7,254.2 L 357.2,247.0 L 358.5,239.4 L 359.1,231.5 L 359.3,223.1 L 359.5,214.3 L 359.6,205.2 Z" fill="#ccc" stroke="red" stroke-width="2"/></svg>