<svg xmlns="http://www.w3.org/2000/svg" width="400" height="400" viewBox="0 0 400 400"><rect width="100%" height="100%" fill="#eee"/><path d="M 357.3,207.5 L 355.9,199.6 L 354.1,192.1 L 351.9,185.0 L 349.4,178.3 L 346.9,172.2 L 344.4,166.4 L 342.1,160.7 L 339.5,154.6 L 336.5,148.1 L 332.8,141.4 L 328.4,134.8 L 323.4,128.7 L 317.8,123.3 L 311.8,118.6 L 305.4,114.6 L 298.7,111.2 L 291.7,108.5 L 284.6,106.5 L 277.5,104.9 L 270.4,103.7 L 263.3,102.8 L 256.5,101.9 L 250.0,101.0 L 244.1,100.1 L 238.2,99.3 L 232.3,98.5 L 225.8,97.8 L 218.9,97.2 L 211.5,96.8 L 204.0,96.5 L 196.6,96.3 L 189.5,96.4 L 182.8,96.6 L 176.5,97.0 L 170.2,97.5 L 163.7,98.0 L 156.8,98.5 L 149.7,99.0 L 142.5,99.6 L 135.4,100.4 L 128.2,101.3 L 120.9,102.4 L 113.6,103.9 L 106.2,106.0 L 98.8,108.8 L 91.4,112.3 L 84.4,116.6 L 77.9,121.9 L 72.3,127.9 L 67.4,134.2 L 63.2,140.8 L 59.7,147.5 L 56.7,154.2 L 54.0,160.9 L 51.3,167.7 L 48.7,175.1 L 46.3,183.0 L 44.1,191.4 L 42.4,200.0 L 41.2,208.5 L 40.5,216.6 L 40.3,224.4 L 40.3,232.0 L 40.7,239.6 L 41.7,247.1 L 43.6,254.4 L 46.6,261.6 L 50.8,268.3 L 56.1,274.3 L 62.4,279.6 L 69.4,284.1 L 77.0,287.9 L 84.9,291.2 L 93.0,293.8 L 101.0,295.8 L 109.0,297.2 L 116.6,298.2 L 123.8,299.0 L 130.5,299.8 L 136.6,300.5 L 142.4,301.0 L 147.9,301.5 L 153.1,301.9 L 158.2,302.2 L 163.2,302.6 L 168.3,302.8 L 173.8,303.0 L 180.0,303.3 L 187.1,303.5 L 195.1,303.7 L 203.6,303.7 L 211.8,303.5 L 219.5,303.2 L 226.3,302.6 L 232.5,302.2 L 238.7,301.7 L 245.0,301.2 L 251.7,300.5 L 258.4,299.7 L 265.1,298.8 L 271.7,297.8 L 278.4,296.7 L 285.4,295.3 L 292.8,293.7 L 300.5,291.8 L 308.3,289.6 L 315.9,286.9 L 323.1,283.8 L 329.9,280.3 L 336.3,276.4 L 342.1,271.8 L 347.1,266.5 L 351.2,260.6 L 354.3,254.3 L 356.6,247.6 L 358.0,240.4 L 358.7,232.6 L 358.8,224.3 L 358.3,215.9 Z" fill="#ccc" stroke="red" stroke-width="2"/></svg>