<svg xmlns="http://www.w3.org/2000/svg" width="400" height="400" viewBox="0 0 400 400"><rect width="100%" height="100%" fill="#eee"/><path d="M 349.3,206.8 L 346.1,199.2 L 342.7,192.1 L 339.0,185.5 L 335.2,179.3 L 331.1,173.5 L 326.8,168.0 L 322.4,162.7 L 318.1,157.7 L 313.7,152.9 L 309.3,148.4 L 304.6,144.2 L 299.5,140.0 L 293.6,135.9 L 287.2,131.8 L 280.3,127.9 L 273.4,124.2 L 266.6,120.7 L 260.2,117.7 L 254.3,115.0 L 248.9,112.7 L 243.6,110.7 L 238.3,109.0 L 232.8,107.4 L 227.0,105.9 L 221.0,104.4 L 215.0,103.0 L 208.7,101.5 L 202.0,100.2 L 195.1,99.0 L 188.1,98.1 L 181.5,97.5 L 175.4,97.2 L 169.5,97.0 L 163.7,97.0 L 157.6,97.0 L 151.5,97.1 L 145.3,97.3 L 139.1,97.7 L 132.9,98.5 L 126.6,99.8 L 120.1,101.5 L 113.2,103.6 L 105.9,106.3 L 98.6,109.4 L 91.4,113.1 L 84.5,117.3 L 77.9,122.1 L 71.5,127.4 L 65.6,133.3 L 60.3,139.7 L 55.6,146.5 L 51.5,153.7 L 48.2,160.9 L 45.5,168.0 L 43.5,175.0 L 42.0,182.0 L 41.1,189.3 L 40.6,196.9 L 40.5,204.7 L 40.9,212.5 L 41.6,220.1 L 42.7,227.3 L 44.5,234.4 L 46.9,241.5 L 50.2,248.6 L 54.3,255.6 L 59.2,262.2 L 64.6,268.1 L 70.4,273.3 L 76.6,277.7 L 83.2,281.4 L 90.4,284.6 L 97.8,287.5 L 105.2,290.1 L 112.4,292.3 L 119.5,294.1 L 126.4,295.4 L 132.9,296.5 L 139.0,297.2 L 144.7,297.8 L 149.9,298.3 L 154.8,298.9 L 159.4,299.4 L 164.0,299.9 L 168.7,300.3 L 173.8,300.8 L 179.3,301.1 L 185.4,301.5 L 192.0,301.8 L 199.0,302.2 L 206.0,302.6 L 212.8,303.0 L 219.3,303.1 L 225.7,303.1 L 232.1,302.8 L 238.5,302.5 L 244.9,302.2 L 251.1,301.9 L 257.5,301.6 L 264.1,301.2 L 270.9,300.7 L 278.1,300.1 L 285.7,299.2 L 293.7,298.1 L 302.0,296.7 L 310.4,294.9 L 318.8,292.6 L 326.8,289.8 L 334.4,286.3 L 341.4,281.9 L 347.3,276.5 L 352.1,270.1 L 355.6,262.7 L 357.5,254.7 L 358.1,246.4 L 357.6,238.2 L 356.4,230.1 L 354.5,222.3 L 352.1,214.5 Z" fill="#ccc" stroke="red" stroke-width="2"/></svg>