<svg xmlns="http://www.w3.org/2000/svg" width="400" height="400" viewBox="0 0 400 400"><rect width="100%" height="100%" fill="#eee"/><path d="M 354.9,207.4 L 352.9,199.2 L 350.7,191.6 L 348.3,184.5 L 345.7,178.0 L 342.8,171.8 L 339.7,165.6 L 336.4,159.2 L 332.7,152.7 L 328.3,146.2 L 323.1,140.0 L 317.3,134.1 L 310.8,128.8 L 304.1,123.9 L 297.1,119.5 L 290.0,115.5 L 282.8,112.0 L 275.6,109.0 L 268.4,106.5 L 261.2,104.4 L 254.1,102.8 L 246.9,101.5 L 240.0,100.5 L 233.3,99.6 L 226.7,98.9 L 220.3,98.2 L 213.6,97.5 L 206.5,96.9 L 199.0,96.5 L 191.3,96.2 L 183.9,96.2 L 176.8,96.3 L 170.1,96.5 L 163.7,96.9 L 157.5,97.5 L 151.4,98.2 L 145.1,99.0 L 138.6,99.8 L 131.5,100.5 L 123.9,101.5 L 115.7,102.7 L 107.4,104.3 L 99.1,106.5 L 91.1,109.4 L 83.4,113.1 L 76.0,117.7 L 69.3,123.3 L 63.4,129.6 L 58.5,136.7 L 54.5,144.1 L 51.4,151.7 L 48.8,159.4 L 46.7,167.2 L 45.0,175.2 L 43.6,183.3 L 42.5,191.3 L 41.6,199.3 L 41.0,207.5 L 40.9,215.6 L 41.2,223.7 L 41.8,231.7 L 42.7,239.4 L 44.1,247.0 L 46.3,254.4 L 49.7,261.5 L 54.3,268.3 L 60.0,274.3 L 66.5,279.3 L 73.5,283.4 L 80.9,286.6 L 88.7,289.2 L 96.7,291.3 L 104.8,293.1 L 112.8,294.7 L 120.4,296.1 L 127.5,297.3 L 134.2,298.3 L 140.5,299.0 L 146.6,299.6 L 152.4,300.2 L 157.8,300.8 L 162.9,301.5 L 167.7,302.1 L 172.2,302.6 L 176.4,302.9 L 180.7,303.1 L 185.5,303.2 L 190.9,303.1 L 196.6,303.0 L 202.2,302.9 L 207.2,302.8 L 211.7,302.9 L 216.0,303.0 L 220.3,303.1 L 225.0,303.2 L 230.0,303.0 L 235.3,302.7 L 240.9,302.3 L 246.9,301.8 L 253.4,301.4 L 260.2,301.0 L 267.3,300.5 L 274.7,299.8 L 282.3,298.8 L 290.3,297.5 L 298.5,296.0 L 306.8,294.3 L 314.7,292.4 L 322.3,290.0 L 329.5,287.1 L 336.4,283.2 L 342.9,278.3 L 348.5,272.3 L 353.1,265.3 L 356.3,257.6 L 358.3,249.4 L 359.1,241.2 L 358.9,232.8 L 358.0,224.4 L 356.6,215.8 Z" fill="#ccc" stroke="red" stroke-width="2"/></svg>