<svg xmlns="http://www.w3.org/2000/svg" width="400" height="400" viewBox="0 0 400 400"><rect width="100%" height="100%" fill="#eee"/><path d="M 209.8,300.3 L 217.3,298.8 L 225.5,298.8 L 233.7,298.7 L 241.9,298.8 L 249.4,297.0 L 257.6,297.1 L 265.8,297.1 L 273.3,295.3 L 281.5,295.4 L 289.7,295.4 L 297.2,293.6 L 305.4,293.6 L 312.9,292.0 L 320.6,290.8 L 328.3,289.6 L 336.0,288.4 L 343.4,286.6 L 349.4,281.8 L 351.1,274.2 L 353.0,266.8 L 352.8,258.6 L 354.6,251.1 L 354.6,242.9 L 354.6,234.7 L 354.6,226.5 L 354.6,218.3 L 354.6,210.1 L 354.6,201.9 L 354.6,193.7 L 354.6,185.5 L 354.1,177.5 L 353.0,169.8 L 352.9,161.6 L 351.7,154.0 L 351.2,145.9 L 351.1,137.8 L 349.6,130.2 L 347.7,122.8 L 346.3,115.2 L 344.1,108.0 L 337.7,103.2 L 330.4,101.2 L 322.6,100.2 L 315.1,98.4 L 307.1,97.9 L 299.4,96.7 L 291.6,95.9 L 283.7,95.1 L 275.5,95.1 L 268.1,93.2 L 259.8,93.5 L 251.7,93.4 L 243.4,93.4 L 235.3,93.4 L 227.1,93.4 L 219.6,91.7 L 211.4,91.7 L 203.2,91.7 L 195.0,91.7 L 187.4,93.3 L 179.3,93.4 L 171.1,93.4 L 162.9,93.4 L 155.1,94.4 L 147.2,95.0 L 139.0,95.0 L 131.6,96.9 L 123.3,96.8 L 115.8,98.5 L 107.6,98.5 L 100.1,100.0 L 92.5,101.6 L 85.2,103.8 L 78.9,108.2 L 73.1,114.0 L 69.6,120.7 L 66.2,127.5 L 62.7,134.3 L 59.9,141.3 L 56.7,148.2 L 54.8,155.6 L 51.7,162.5 L 49.9,170.0 L 48.2,177.4 L 44.8,184.2 L 43.1,191.7 L 41.7,199.3 L 39.9,206.8 L 38.0,214.2 L 36.4,221.7 L 36.1,229.8 L 34.7,237.5 L 34.9,245.6 L 34.6,253.9 L 35.9,261.6 L 38.0,268.9 L 40.6,276.0 L 45.3,282.2 L 51.5,287.1 L 59.0,288.6 L 66.5,290.3 L 73.9,292.2 L 82.0,292.5 L 89.7,293.6 L 97.1,295.5 L 105.4,295.2 L 112.8,297.2 L 121.1,297.1 L 129.3,297.0 L 136.7,298.9 L 145.0,298.7 L 153.2,298.7 L 160.7,300.4 L 168.9,300.4 L 177.0,300.4 L 185.3,300.4 L 193.4,300.4 L 201.6,300.4 L 209.8,300.3 Z" fill="rgba(0,0,255,0.2)" stroke="blue" stroke-width="2"/></svg>