<svg xmlns="http://www.w3.org/2000/svg" width="400" height="400" viewBox="0 0 400 400"><rect width="100%" height="100%" fill="#eee"/><path d="M 353.9,206.3 L 351.4,198.3 L 348.7,190.3 L 345.9,182.6 L 342.9,175.3 L 339.9,168.4 L 336.9,161.4 L 333.9,154.4 L 330.6,147.2 L 327.0,140.1 L 323.0,132.9 L 318.6,125.8 L 313.9,118.9 L 308.8,112.4 L 303.1,106.6 L 296.9,101.5 L 290.1,97.3 L 283.1,93.9 L 275.8,91.5 L 268.4,89.7 L 260.9,88.4 L 253.6,87.4 L 246.5,86.7 L 239.8,86.0 L 233.3,85.4 L 227.0,84.9 L 220.5,84.4 L 213.4,83.9 L 205.7,83.6 L 197.4,83.5 L 189.1,83.5 L 181.1,83.6 L 173.6,83.8 L 166.7,84.2 L 160.1,84.7 L 153.4,85.2 L 146.5,86.0 L 139.5,87.0 L 132.4,88.3 L 125.3,90.0 L 118.1,92.4 L 110.9,95.7 L 104.2,100.1 L 98.1,105.6 L 92.6,112.0 L 87.8,118.9 L 83.3,126.0 L 79.1,133.0 L 75.5,139.9 L 72.3,146.5 L 69.4,153.0 L 66.6,159.4 L 64.0,165.8 L 61.6,172.0 L 59.5,178.0 L 57.6,183.9 L 55.7,189.8 L 53.8,195.9 L 51.6,202.4 L 49.4,209.3 L 47.3,216.3 L 45.6,223.3 L 44.0,230.5 L 42.7,238.0 L 41.7,245.9 L 41.0,254.2 L 40.8,262.7 L 41.6,271.2 L 43.5,279.4 L 46.9,286.9 L 51.6,293.6 L 57.5,299.1 L 64.3,303.7 L 71.8,307.4 L 79.9,310.1 L 88.4,312.1 L 97.0,313.4 L 105.5,314.3 L 113.7,315.0 L 121.6,315.6 L 129.0,316.0 L 136.2,316.1 L 143.1,316.0 L 149.6,315.9 L 155.8,315.7 L 161.7,315.6 L 167.4,315.5 L 173.2,315.3 L 179.4,315.0 L 186.1,314.6 L 193.5,314.1 L 200.9,313.4 L 208.0,312.7 L 214.5,311.8 L 220.8,310.9 L 227.0,309.8 L 233.3,308.6 L 239.7,307.5 L 246.2,306.4 L 252.7,305.1 L 259.2,303.8 L 265.9,302.3 L 272.8,300.8 L 280.1,299.1 L 287.8,297.2 L 295.7,294.9 L 303.6,292.3 L 311.5,289.4 L 319.3,286.2 L 326.8,282.6 L 334.1,278.4 L 340.7,273.4 L 346.6,267.7 L 351.5,261.2 L 355.3,254.1 L 357.7,246.4 L 358.8,238.4 L 358.8,230.2 L 357.8,222.2 L 356.1,214.2 Z" fill="#ccc" stroke="red" stroke-width="2"/></svg>