<svg xmlns="http://www.w3.org/2000/svg" width="400" height="400" viewBox="0 0 400 400"><rect width="100%" height="100%" fill="#eee"/><path d="M 358.1,207.2 L 356.8,199.1 L 355.0,191.1 L 352.6,183.2 L 349.8,175.6 L 346.5,168.2 L 342.9,160.9 L 339.1,153.9 L 335.1,147.3 L 330.7,141.0 L 325.8,134.7 L 320.5,128.4 L 314.8,122.2 L 308.6,116.4 L 302.3,111.1 L 295.7,106.3 L 289.1,101.9 L 282.3,98.0 L 275.4,94.4 L 268.3,91.1 L 261.2,88.1 L 254.0,85.6 L 247.0,83.6 L 240.1,82.1 L 233.6,81.2 L 227.3,80.7 L 221.3,80.6 L 215.7,80.7 L 210.1,80.7 L 204.0,80.8 L 197.2,81.0 L 189.7,81.6 L 181.8,82.7 L 174.0,84.4 L 166.6,86.3 L 159.8,88.5 L 153.5,90.6 L 147.7,93.0 L 142.2,95.4 L 137.1,98.0 L 132.4,100.7 L 127.8,103.5 L 123.3,106.4 L 118.5,109.7 L 113.2,113.6 L 107.4,118.0 L 101.3,123.2 L 95.1,128.9 L 89.4,134.8 L 84.3,140.7 L 79.8,146.6 L 75.8,152.5 L 72.0,158.5 L 68.2,164.6 L 64.4,170.7 L 60.7,176.9 L 57.2,183.4 L 54.2,190.2 L 51.6,197.2 L 49.2,204.6 L 47.0,212.2 L 45.0,220.1 L 43.3,228.1 L 41.9,236.3 L 41.0,244.5 L 40.5,252.6 L 40.7,260.6 L 41.8,268.4 L 44.1,275.8 L 47.8,282.6 L 53.1,288.4 L 59.5,293.2 L 66.5,297.1 L 73.9,300.4 L 81.3,303.5 L 88.6,306.4 L 95.9,309.1 L 103.2,311.5 L 110.4,313.5 L 117.5,315.1 L 124.5,316.3 L 131.3,317.3 L 137.7,318.2 L 143.9,319.2 L 150.0,320.0 L 156.2,320.6 L 162.2,321.0 L 168.2,321.2 L 174.1,321.1 L 180.1,321.1 L 186.4,321.2 L 193.1,321.2 L 200.1,320.9 L 207.3,320.4 L 214.6,319.6 L 221.8,318.8 L 228.8,317.7 L 235.6,316.3 L 242.3,314.8 L 249.0,313.2 L 255.6,311.5 L 262.0,309.6 L 268.6,307.5 L 275.6,305.0 L 283.0,302.3 L 290.7,299.3 L 298.4,296.0 L 305.9,292.3 L 313.2,288.3 L 320.3,283.9 L 327.2,279.0 L 333.8,273.5 L 339.9,267.4 L 345.2,260.9 L 349.7,254.0 L 353.4,246.8 L 356.2,239.2 L 358.1,231.4 L 358.9,223.4 L 358.9,215.3 Z" fill="#ccc" stroke="red" stroke-width="2"/></svg>