<svg xmlns="http://www.w3.org/2000/svg" width="400" height="400" viewBox="0 0 400 400"><rect width="100%" height="100%" fill="#eee"/><path d="M 356.9,207.0 L 355.4,200.3 L 353.5,193.6 L 351.2,186.8 L 348.4,180.0 L 345.2,173.2 L 341.5,166.6 L 337.6,160.4 L 333.3,154.5 L 328.5,148.7 L 323.2,143.0 L 317.5,137.6 L 311.5,132.7 L 305.5,128.2 L 299.5,124.2 L 293.3,120.4 L 286.8,117.0 L 280.2,113.8 L 273.8,111.0 L 267.5,108.5 L 261.1,106.5 L 254.6,104.9 L 248.0,103.4 L 241.5,102.0 L 235.0,100.6 L 228.7,99.4 L 222.5,98.4 L 216.3,97.7 L 209.7,97.2 L 202.9,96.9 L 196.1,96.9 L 189.6,97.2 L 183.6,97.6 L 177.8,98.2 L 172.0,99.0 L 166.0,100.2 L 160.1,101.5 L 154.1,102.9 L 148.1,104.4 L 142.2,105.9 L 136.5,107.8 L 130.7,110.0 L 124.7,112.7 L 118.5,115.7 L 112.1,119.1 L 105.7,122.9 L 99.5,126.8 L 93.5,131.0 L 87.8,135.3 L 82.5,139.9 L 77.6,144.7 L 73.2,149.7 L 69.2,154.9 L 65.3,160.2 L 61.4,166.0 L 57.6,172.1 L 53.9,178.8 L 50.6,185.8 L 47.7,193.0 L 45.2,200.5 L 43.3,208.1 L 41.8,215.8 L 41.0,223.5 L 40.9,231.1 L 41.8,238.7 L 43.6,245.9 L 46.6,252.6 L 50.7,258.9 L 55.7,264.5 L 61.5,269.5 L 67.7,273.8 L 74.3,277.5 L 81.3,280.8 L 88.7,283.7 L 96.1,286.5 L 103.6,289.0 L 111.1,291.2 L 118.6,293.1 L 125.8,294.5 L 132.7,295.7 L 139.2,296.8 L 145.3,297.9 L 151.1,298.9 L 156.6,299.7 L 161.6,300.4 L 166.6,301.0 L 171.6,301.4 L 177.0,301.7 L 182.8,302.0 L 189.1,302.5 L 195.9,302.9 L 202.9,303.0 L 209.9,302.8 L 216.6,302.4 L 223.0,302.1 L 229.3,301.8 L 235.7,301.3 L 242.4,300.6 L 249.3,299.7 L 256.2,298.5 L 263.0,297.3 L 269.6,296.0 L 276.1,294.7 L 282.6,293.1 L 289.3,291.2 L 296.1,288.9 L 303.1,286.3 L 310.2,283.4 L 317.4,280.0 L 324.4,276.2 L 331.0,272.0 L 337.3,267.4 L 343.1,262.3 L 348.1,256.8 L 352.3,250.6 L 355.4,243.8 L 357.5,236.4 L 358.4,228.7 L 358.4,221.1 L 357.9,213.9 Z" fill="#ccc" stroke="red" stroke-width="2"/></svg>