<?xml version="1.0" encoding="UTF-8" standalone="no"?>
<!-- Created with Inkscape (http://www.inkscape.org/) -->

<svg
   version="1.1"
   id="svg1"
   width="246"
   height="157"
   viewBox="0 0 246 157"
   xmlns="http://www.w3.org/2000/svg"
   xmlns:svg="http://www.w3.org/2000/svg">
  <defs
     id="defs1" />
  <g
     id="g1">
    <path
       style="stroke:#b1b1b1;fill:none"
       d="m 128,15.424377 c 22.62265,-2.970398 49.48187,0.894364 72,4.155091 7.43364,1.076431 19.19299,1.164276 24.19986,7.529327 15.56648,19.789124 -0.35504,58.552994 -7.8812,78.891205 -2.74725,7.42401 -5.78906,16.16132 -11.50384,21.86728 -5.12868,5.12077 -12.96486,5.92757 -19.81482,6.85031 -32.83888,4.42371 -65.05765,3.81722 -98,2.32176 -10.155121,-0.461 -29.427216,0.47011 -37.866512,-5.76698 C 43.57048,127.16102 43.474796,117.25237 42.579475,111 39.666656,90.658615 38.682606,68.544678 40.089504,48 40.551098,41.259445 39.971321,29.124695 46.108795,24.843353 52.347069,20.491699 62.706982,20.61142 70,19.715271 c 19.246758,-2.365005 38.84797,-1.776199 58,-4.290894"
       id="path1" />
  </g>
</svg>
