<?xml version="1.0" standalone="yes"?>
<svg xmlns="http://www.w3.org/2000/svg" width="246" height="157">
<path style="fill:#ffffff; stroke:none;" d="M0 0L0 157L246 157L246 0L0 0z"/>
<path style="fill:#e1e1e1; stroke:none;" d="M115 14C123.118 17.4066 135.243 16 144 16C135.882 12.5934 123.757 14 115 14z"/>
<path style="fill:#d6d6d6; stroke:none;" d="M132 14C140.149 17.4195 151.411 15.6778 160 15C152.351 11.7904 140.288 14 132 14z"/>
<path style="fill:#ececec; stroke:none;" d="M98 15C100.89 16.2129 103.874 15.9983 107 16C104.11 14.7871 101.126 15.0017 98 15z"/>
<path style="fill:#b8b8b8; stroke:none;" d="M94 16C99.4633 18.2925 106.271 16.715 112 16.1698C116.951 15.6986 122.031 16 127 16C117.713 12.1032 103.912 16 94 16z"/>
<path style="fill:#b6b6b5; stroke:none;" d="M155 15C159.471 16.8763 165.183 16 170 16C165.529 14.1237 159.817 15 155 15z"/>
<path style="fill:#cecece; stroke:none;" d="M167 16C169.3 16.9157 170.377 16.8793 172 15L167 16z"/>
<path style="fill:#cbcbca; stroke:none;" d="M89 16C91.311 17.3931 93.3086 17.7652 96 18C93.6856 16.4089 91.8099 16.1425 89 16z"/>
<path style="fill:#e2e2e2; stroke:none;" d="M109 16C110.506 16.683 111.315 16.8259 113 17C111.494 16.317 110.685 16.1741 109 16z"/>
<path style="fill:#ffffff; stroke:none;" d="M113 16.4244C98.1959 18.3682 82.9107 18.5378 68 19.9252C61.7642 20.5054 51.3175 20.7294 46.2284 24.7276C40.4141 29.2956 42 42.4111 42 49C42 69.1673 40.7172 90.0115 43.5795 110C44.3857 115.63 44.4677 126.305 49.419 130.062C51.9587 131.989 55.9688 132.199 59 132.8C67.6347 134.514 76.2982 134.338 85 135.17C117.725 138.297 151.346 138.004 184 133.711C191 132.79 199.661 132.056 204.895 126.891C209.924 121.929 212.607 114.411 215.269 108C222.27 91.1434 225.482 73.7793 228.804 56C230.546 46.676 230.938 34.0462 224.351 26.2245C219.027 19.9024 203.738 20.0935 196 19.1551C176.942 16.8439 158.2 16 139 16C130.426 16 121.51 15.307 113 16.4244z"/>
<path style="fill:#b0b0b0; stroke:none;" d="M172 16C174.89 17.213 177.874 16.9983 181 17C178.11 15.7871 175.126 16.0017 172 16z"/>
<path style="fill:#c0c0c0; stroke:none;" d="M181 16C183.271 17.6802 184.242 17.6572 187 17C184.948 16.1257 183.253 16.0472 181 16z"/>
<path style="fill:#dddddd; stroke:none;" d="M74 17C76.8619 18.3758 79.8383 18.7486 83 19C80.1113 17.2691 77.3387 17.0708 74 17z"/>
<path style="fill:#c0c0c0; stroke:none;" d="M80 17C81.506 17.683 82.3148 17.8259 84 18C82.4939 17.317 81.6852 17.1741 80 17z"/>
<path style="fill:#a9a9a9; stroke:none;" d="M84 17C86.6127 18.0977 89.1645 17.9928 92 18C89.3873 16.9023 86.8355 17.0072 84 17z"/>
<path style="fill:#a8a8a8; stroke:none;" d="M186 17C188.332 17.9845 190.457 17.9813 193 18C190.668 17.0155 188.543 17.0187 186 17z"/>
<path style="fill:#dedede; stroke:none;" d="M193 17C194.506 17.683 195.315 17.8259 197 18C195.494 17.317 194.685 17.1741 193 17z"/>
<path style="fill:#c0c0c0; stroke:none;" d="M68 18L68 20L74 19C71.9479 18.1258 70.2528 18.0472 68 18z"/>
<path style="fill:#9b9b9b; stroke:none;" d="M74 18C75.2484 18.6848 75.5484 18.7488 77 19C75.7517 18.3152 75.4515 18.2512 74 18z"/>
<path style="fill:#c4c4c3; stroke:none;" d="M77.6667 18.3333C77.2222 18.7778 78.2778 18.7222 78.3333 18.6667C78.7777 18.2222 77.7222 18.2778 77.6667 18.3333z"/>
<path style="fill:#e1e1e1; stroke:none;" d="M190 18C191.248 18.6848 191.548 18.7488 193 19C191.752 18.3152 191.452 18.2512 190 18z"/>
<path style="fill:#b0b0b0; stroke:none;" d="M193 18C196.938 19.6988 201.719 19.9116 206 20C201.942 17.8424 197.509 18.003 193 18z"/>
<path style="fill:#c8c8c8; stroke:none;" d="M61 19L62 21C63.6352 20.4549 63.4549 20.6352 64 19L61 19z"/>
<path style="fill:#a5a5a5; stroke:none;" d="M64 19C65.506 19.683 66.3148 19.8259 68 20C66.4939 19.317 65.6852 19.1741 64 19z"/>
<path style="fill:#dddddd; stroke:none;" d="M198.667 19.3333C198.222 19.7778 199.278 19.7222 199.333 19.6667C199.778 19.2222 198.722 19.2778 198.667 19.3333z"/>
<path style="fill:#cccccc; stroke:none;" d="M206 19L207 21C208.635 20.455 208.455 20.6351 209 19L206 19z"/>
<path style="fill:#cdcdcd; stroke:none;" d="M56 20L56 22L58 22L58 20L56 20z"/>
<path style="fill:#b0b0b0; stroke:none;" d="M58 20C59.506 20.683 60.3148 20.8259 62 21C60.494 20.317 59.6852 20.1741 58 20z"/>
<path style="fill:#e6e6e6; stroke:none;" d="M204 20C205.248 20.6848 205.548 20.7488 207 21C205.752 20.3152 205.452 20.2512 204 20z"/>
<path style="fill:#acacac; stroke:none;" d="M208 20C209.506 20.683 210.315 20.8259 212 21C210.494 20.317 209.685 20.1741 208 20z"/>
<path style="fill:#d7d7d7; stroke:none;" d="M211 22C213.092 21.5943 213.02 21.7833 214 20C212.42 20.6836 212.223 20.8048 211 22z"/>
<path style="fill:#b7b7b7; stroke:none;" d="M46 23C49.2803 23.7494 52.6622 22.4491 56 22C52.4718 20.5616 49.4173 21.5582 46 23z"/>
<path style="fill:#a8a8a8; stroke:none;" d="M214 21C215.506 21.683 216.315 21.8259 218 22C216.494 21.317 215.685 21.1741 214 21z"/>
<path style="fill:#a9a9a9; stroke:none;" d="M218 22C219.248 22.6848 219.548 22.7488 221 23C219.752 22.3152 219.452 22.2512 218 22z"/>
<path style="fill:#b3b3b3; stroke:none;" d="M221.667 23.3333C221.222 23.7778 222.278 23.7222 222.333 23.6667C222.778 23.2222 221.722 23.2778 221.667 23.3333M44 24C42.8182 26.4297 42.2695 28.3127 42 31L46 24L44 24z"/>
<path style="fill:#aaaaaa; stroke:none;" d="M223 24L224 25L223 24z"/>
<path style="fill:#ababab; stroke:none;" d="M224 25L225 26L224 25z"/>
<path style="fill:#bababa; stroke:none;" d="M225 26C226.746 32.3983 229.453 38.3085 230 45C232.456 39.0913 229.258 30.389 225 26z"/>
<path style="fill:#c9c9c9; stroke:none;" d="M42 31C41.6599 33.0182 41.6767 33.9676 42 36C42.8299 33.9695 42.8299 33.0305 42 31z"/>
<path style="fill:#b8b8b8; stroke:none;" d="M41 34L41 44C42.3457 40.793 42.3457 37.207 41 34z"/>
<path style="fill:#d1d1d1; stroke:none;" d="M40 41C40.168 43.4025 40.1969 44.4602 42 46C41.5196 44.0404 41.0623 42.6932 40 41z"/>
<path style="fill:#e6e6e6; stroke:none;" d="M231 44L231 50C231.951 47.7148 231.951 46.2852 231 44z"/>
<path style="fill:#949494; stroke:none;" d="M230 45L230 52C231.059 49.4657 231.059 47.5343 230 45z"/>
<path style="fill:#b7b7b7; stroke:none;" d="M40 46L40 55C41.2561 52.0059 41.2561 48.9941 40 46z"/>
<path style="fill:#f1f1f1; stroke:none;" d="M41 46L41 83C44.0042 75.8407 42 64.7437 42 57C42 53.2976 42.4412 49.4345 41 46z"/>
<path style="fill:#c2c2c2; stroke:none;" d="M229 52L230 56C230.683 54.494 230.826 53.6852 231 52L229 52z"/>
<path style="fill:#aaaaaa; stroke:none;" d="M40 55L40 71C41.8123 66.6811 41.8123 59.3189 40 55z"/>
<path style="fill:#949494; stroke:none;" d="M229 55L229 59C229.71 57.2405 229.71 56.7595 229 55z"/>
<path style="fill:#d7d7d7; stroke:none;" d="M228 57L229 63C229.889 60.492 229.495 59.1851 228 57z"/>
<path style="fill:#adadad; stroke:none;" d="M228 61L228 67C228.951 64.7148 228.951 63.2853 228 61z"/>
<path style="fill:#cdcdcd; stroke:none;" d="M227 65C227.406 67.0924 227.217 67.0198 229 68C228.309 66.6116 228.015 66.1393 227 65z"/>
<path style="fill:#9b9b9b; stroke:none;" d="M227.333 68.6667C227.278 68.7223 227.222 69.7777 227.667 69.3333C227.722 69.2778 227.778 68.2221 227.333 68.6667z"/>
<path style="fill:#c2c2c2; stroke:none;" d="M227 70C226.438 71.8005 226.176 73.1219 226 75C227.318 73.0738 227.651 72.2341 227 70z"/>
<path style="fill:#959595; stroke:none;" d="M40 71L40 81C41.3457 77.793 41.3457 74.207 40 71z"/>
<path style="fill:#d8d8d8; stroke:none;" d="M225 74L226 78C226.553 75.9922 226.303 75.6676 225 74z"/>
<path style="fill:#a1a1a0; stroke:none;" d="M225.333 76.6667C225.278 76.7223 225.222 77.7778 225.667 77.3333C225.722 77.2778 225.778 76.2222 225.333 76.6667z"/>
<path style="fill:#bbbbbb; stroke:none;" d="M225 78C221.837 86.2601 217.88 96.2162 217 105C220.992 98.9877 226.693 85.171 225 78z"/>
<path style="fill:#cfcfcf; stroke:none;" d="M40 81L40 90C42.3078 86.9378 42.1467 84.1468 40 81z"/>
<path style="fill:#a6a6a6; stroke:none;" d="M41 89L41 99C42.3457 95.793 42.3457 92.207 41 89z"/>
<path style="fill:#c9c9c9; stroke:none;" d="M42 94C41.7809 97.1042 41.5088 99.9167 42 103C43.2561 100.006 43.2561 96.9941 42 94z"/>
<path style="fill:#e5e5e5; stroke:none;" d="M41 101L41 105C41.7102 103.241 41.7102 102.759 41 101z"/>
<path style="fill:#8f8f8f; stroke:none;" d="M42 103L42 107C42.7102 105.241 42.7102 104.759 42 103z"/>
<path style="fill:#bebebe; stroke:none;" d="M216 105C213.257 112.071 209.094 118.732 207 126C211.238 121.807 217.684 111.07 216 105M42 107C42.3067 109.123 42.3821 109.686 44 111C43.436 109.248 43.0811 108.458 42 107z"/>
<path style="fill:#ababab; stroke:none;" d="M43 111L43 116C43.8299 113.97 43.8299 113.03 43 111z"/>
<path style="fill:#d5d5d5; stroke:none;" d="M43 116L43 119C44.1952 117.777 44.3164 117.58 45 116L43 116z"/>
<path style="fill:#ababab; stroke:none;" d="M44 118L45 125C45.9653 122.294 45.4659 120.45 44 118z"/>
<path style="fill:#c8c8c8; stroke:none;" d="M45.6667 125.333C45.2222 125.778 46.2778 125.722 46.3333 125.667C46.7778 125.222 45.7222 125.278 45.6667 125.333z"/>
<path style="fill:#acacac; stroke:none;" d="M206 125C205.043 126.517 204.613 127.339 204 129C205.63 127.485 206.163 127.145 206 125z"/>
<path style="fill:#a3a3a3; stroke:none;" d="M46.3333 126.667C46.2778 126.722 46.2222 127.778 46.6667 127.333C46.7222 127.278 46.7778 126.222 46.3333 126.667z"/>
<path style="fill:#bfbfbf; stroke:none;" d="M46 128C46.5451 129.635 46.3648 129.455 48 130L48 128L46 128z"/>
<path style="fill:#c4c4c3; stroke:none;" d="M203 128C202.014 129.479 202 129.203 202 131C203.289 129.557 203.401 129.766 203 128z"/>
<path style="fill:#a3a3a3; stroke:none;" d="M48 130L49 131L48 130z"/>
<path style="fill:#ababab; stroke:none;" d="M200.667 130.333C200.222 130.778 201.278 130.722 201.333 130.667C201.778 130.222 200.722 130.278 200.667 130.333z"/>
<path style="fill:#a9a9a9; stroke:none;" d="M49.6667 131.333C49.2222 131.778 50.2778 131.722 50.3333 131.667C50.7778 131.222 49.7222 131.278 49.6667 131.333z"/>
<path style="fill:#c7c7c7; stroke:none;" d="M51 131L51 133C52.6352 132.455 52.4549 132.635 53 131L51 131z"/>
<path style="fill:#b4b4b4; stroke:none;" d="M193 132C195.523 132.99 197.358 132.617 200 132C197.54 131.112 195.585 131.533 193 132z"/>
<path style="fill:#afafaf; stroke:none;" d="M52 132C53.506 132.683 54.3148 132.826 56 133C54.494 132.317 53.6852 132.174 52 132z"/>
<path style="fill:#d7d7d7; stroke:none;" d="M54 133C55.8092 133.574 56.0688 133.465 58 133C56.3407 132.594 55.7582 132.691 54 133z"/>
<path style="fill:#d6d6d6; stroke:none;" d="M190 132C191.788 133.422 192.706 133.697 195 134C193.249 132.745 192.143 132.386 190 132z"/>
<path style="fill:#afafaf; stroke:none;" d="M57 133C58.5061 133.683 59.3148 133.826 61 134C59.494 133.317 58.6852 133.174 57 133z"/>
<path style="fill:#c5c5c5; stroke:none;" d="M60 134C61.769 134.779 63.0359 134.912 65 135C63.0144 133.699 62.3723 133.67 60 134z"/>
<path style="fill:#c2c2c2; stroke:none;" d="M184 134C185.506 134.683 186.315 134.826 188 135C186.265 133.95 186.069 133.954 184 134z"/>
<path style="fill:#a6a6a6; stroke:none;" d="M186 133C187.769 133.779 189.036 133.912 191 134C189.231 133.221 187.964 133.088 186 133z"/>
<path style="fill:#b0b0b0; stroke:none;" d="M65 134C66.5061 134.683 67.3148 134.826 69 135C67.494 134.317 66.6852 134.174 65 134z"/>
<path style="fill:#cbcbca; stroke:none;" d="M69 136L73 135C70.9535 134.249 70.4043 134.344 69 136z"/>
<path style="fill:#d0d0d0; stroke:none;" d="M175 134C177.01 135.474 177.522 135.465 180 135C178.231 134.221 176.964 134.088 175 134z"/>
<path style="fill:#a8a8a8; stroke:none;" d="M180 134C181.506 134.683 182.315 134.826 184 135C182.494 134.317 181.685 134.174 180 134z"/>
<path style="fill:#adadad; stroke:none;" d="M71 135C73.6127 136.098 76.1645 135.993 79 136C76.3873 134.902 73.8355 135.007 71 135z"/>
<path style="fill:#d8d8d8; stroke:none;" d="M76 136C78.5232 136.99 80.3582 136.617 83 136C80.5401 135.112 78.5851 135.533 76 136z"/>
<path style="fill:#ededed; stroke:none;" d="M83 135C84.769 135.779 86.0359 135.912 88 136C86.231 135.221 84.9641 135.088 83 135M161 135C163.613 136.098 166.165 135.993 169 136C166.387 134.902 163.835 135.007 161 135z"/>
<path style="fill:#d4d4d4; stroke:none;" d="M168 136C169.506 136.683 170.315 136.826 172 137C170.265 135.95 170.068 135.954 168 136z"/>
<path style="fill:#acacac; stroke:none;" d="M170 135C172.052 135.874 173.747 135.953 176 136C173.948 135.126 172.253 135.047 170 135z"/>
<path style="fill:#eaeaea; stroke:none;" d="M179 135C180.506 135.683 181.315 135.826 183 136C181.494 135.317 180.685 135.174 179 135z"/>
<path style="fill:#9d9d9d; stroke:none;" d="M81 136C83.3315 136.985 85.4567 136.981 88 137C85.6684 136.015 83.5433 136.019 81 136z"/>
<path style="fill:#c2c2c2; stroke:none;" d="M88 136C91.7699 138.004 95.7967 137.988 100 138C96.2368 136.191 92.1366 136.034 88 136z"/>
<path style="fill:#cbcbca; stroke:none;" d="M151 137C154.105 138.301 156.808 137.942 160 137C156.895 135.699 154.192 136.058 151 137z"/>
<path style="fill:#ababab; stroke:none;" d="M160 136C162.613 137.098 165.165 136.993 168 137C165.387 135.902 162.835 136.007 160 136z"/>
<path style="fill:#dedede; stroke:none;" d="M89 137C90.2484 137.685 90.5484 137.749 92 138C90.7517 137.315 90.4516 137.251 89 137z"/>
<path style="fill:#b3b3b3; stroke:none;" d="M100 137C104.471 138.876 110.183 138 115 138C110.529 136.124 104.817 137 100 137z"/>
<path style="fill:#cccccc; stroke:none;" d="M115 137C120.639 139.998 127.785 139 134 139C128.822 136.827 120.689 137.244 115 137z"/>
<path style="fill:#d7d7d7; stroke:none;" d="M120 137C125.385 139.26 134.085 138.878 140 139L140 137L120 137z"/>
<path style="fill:#acacac; stroke:none;" d="M140 137C143.432 138.44 147.3 138 151 138C147.568 136.56 143.7 137 140 137z"/>
<path style="fill:#e3e3e3; stroke:none;" d="M103 138C107.724 139.982 113.91 139 119 139C114.276 137.018 108.09 138 103 138z"/>
<path style="fill:#e9e9e9; stroke:none;" d="M140 138C142.613 139.098 145.164 138.993 148 139C145.387 137.902 142.835 138.007 140 138z"/>
</svg>
