<svg xmlns="http://www.w3.org/2000/svg" width="400" height="400" viewBox="0 0 400 400"><rect width="100%" height="100%" fill="#eee"/><path d="M 358.3,199.2 L 357.7,191.0 L 356.8,182.9 L 355.5,174.8 L 353.8,166.6 L 351.7,158.5 L 349.1,150.4 L 345.9,142.5 L 341.9,134.9 L 336.9,128.1 L 330.8,122.3 L 323.8,117.6 L 316.3,113.8 L 308.5,110.8 L 300.5,108.3 L 292.5,106.3 L 284.8,104.7 L 277.5,103.4 L 270.5,102.4 L 263.6,101.6 L 256.8,100.9 L 250.2,100.3 L 243.7,99.6 L 237.4,99.0 L 231.4,98.5 L 225.6,97.9 L 220.2,97.4 L 215.1,96.9 L 209.9,96.5 L 204.1,96.3 L 197.5,96.3 L 190.4,96.5 L 183.3,96.7 L 176.3,96.9 L 169.6,97.0 L 163.0,97.3 L 156.5,97.6 L 150.1,98.0 L 143.5,98.3 L 136.7,98.6 L 129.6,98.9 L 122.1,99.4 L 114.4,100.1 L 106.5,101.0 L 98.6,102.2 L 90.5,103.7 L 82.5,105.6 L 74.9,108.2 L 67.8,111.8 L 61.5,116.6 L 56.3,122.5 L 52.2,129.4 L 49.0,137.0 L 46.5,145.1 L 44.6,153.4 L 43.1,161.7 L 42.0,170.0 L 41.3,178.2 L 40.8,186.5 L 40.7,195.1 L 40.8,203.9 L 41.1,212.8 L 41.7,221.7 L 42.7,230.4 L 44.1,239.0 L 46.1,247.3 L 48.7,255.5 L 52.2,263.2 L 56.8,270.1 L 62.8,276.1 L 69.7,280.9 L 77.3,284.7 L 85.1,287.6 L 93.0,289.9 L 100.9,291.9 L 108.7,293.6 L 116.2,295.1 L 123.5,296.2 L 130.7,297.2 L 137.6,298.1 L 144.2,298.9 L 150.4,299.6 L 156.3,300.2 L 162.0,300.8 L 167.6,301.2 L 172.9,301.7 L 178.2,302.3 L 183.4,302.9 L 188.8,303.2 L 194.8,303.2 L 201.2,303.1 L 207.6,302.9 L 213.7,302.8 L 219.5,302.7 L 225.3,302.5 L 231.2,302.1 L 237.5,301.7 L 244.2,301.3 L 251.0,300.9 L 258.0,300.4 L 265.0,299.7 L 272.2,298.7 L 279.4,297.5 L 286.7,296.0 L 294.2,294.3 L 301.8,292.4 L 309.6,290.3 L 317.4,287.8 L 325.0,284.7 L 332.1,280.8 L 338.4,276.0 L 343.9,270.1 L 348.5,263.3 L 351.9,255.8 L 354.3,247.9 L 355.8,239.8 L 356.8,231.7 L 357.5,223.6 L 358.1,215.6 L 358.4,207.4 Z" fill="#ccc" stroke="red" stroke-width="2"/></svg>