<svg xmlns="http://www.w3.org/2000/svg" width="400" height="400" viewBox="0 0 400 400"><rect width="100%" height="100%" fill="#eee"/><path d="M 353.5,205.5 L 350.9,197.6 L 348.0,190.2 L 344.9,183.4 L 341.6,177.2 L 338.2,171.3 L 334.4,165.5 L 330.4,159.8 L 325.9,154.2 L 320.9,148.7 L 315.6,143.4 L 309.9,138.5 L 304.0,133.9 L 298.0,129.5 L 291.8,125.3 L 285.5,121.2 L 279.1,117.4 L 272.4,114.0 L 265.8,111.1 L 259.3,108.5 L 253.0,106.2 L 246.9,104.3 L 240.7,102.8 L 234.5,101.6 L 228.1,100.6 L 221.6,99.6 L 215.0,98.7 L 208.2,97.8 L 201.2,97.1 L 194.1,96.7 L 187.0,96.6 L 180.2,96.8 L 173.4,97.3 L 166.7,98.0 L 160.0,99.0 L 153.5,100.2 L 147.1,101.6 L 140.7,103.0 L 134.3,104.4 L 127.6,106.1 L 120.7,108.2 L 113.5,110.8 L 106.2,113.9 L 98.8,117.3 L 91.4,121.0 L 84.4,124.9 L 77.8,129.2 L 71.8,133.9 L 66.3,139.0 L 61.3,144.7 L 56.7,150.9 L 52.7,157.5 L 49.1,164.4 L 46.2,171.4 L 44.0,178.6 L 42.5,185.8 L 41.7,192.9 L 41.5,200.0 L 41.6,207.0 L 42.4,213.9 L 43.8,220.8 L 46.0,227.5 L 48.8,234.2 L 52.1,240.8 L 55.8,247.3 L 60.0,253.5 L 64.7,259.2 L 69.7,264.4 L 75.0,269.1 L 80.6,273.2 L 86.4,276.9 L 92.5,280.1 L 98.9,283.1 L 105.4,285.7 L 112.0,288.0 L 118.7,289.9 L 125.1,291.6 L 131.4,293.0 L 137.6,294.4 L 143.8,295.9 L 150.0,297.3 L 156.1,298.7 L 162.0,299.7 L 167.6,300.3 L 172.9,300.7 L 178.0,301.0 L 183.3,301.5 L 189.1,302.0 L 195.4,302.5 L 201.7,302.8 L 207.5,303.0 L 212.6,303.1 L 217.3,303.1 L 222.0,303.2 L 226.9,303.1 L 232.2,302.9 L 237.6,302.5 L 243.3,302.1 L 249.3,301.6 L 255.3,300.9 L 261.6,300.1 L 268.0,299.0 L 274.7,297.7 L 281.7,296.2 L 289.1,294.6 L 296.8,293.0 L 304.8,291.2 L 313.0,289.1 L 321.2,286.5 L 329.1,283.3 L 336.6,279.5 L 343.3,274.8 L 349.0,269.1 L 353.4,262.4 L 356.5,255.0 L 358.2,247.1 L 358.7,239.0 L 358.3,230.7 L 357.2,222.2 L 355.6,213.8 Z" fill="#ccc" stroke="red" stroke-width="2"/></svg>