<svg xmlns="http://www.w3.org/2000/svg" width="400" height="400" viewBox="0 0 400 400"><rect width="100%" height="100%" fill="#eee"/><path d="M 351.1,205.8 L 349.7,197.7 L 348.2,190.1 L 346.6,182.9 L 344.8,176.0 L 343.0,169.1 L 341.2,162.0 L 339.4,154.7 L 337.1,147.3 L 333.9,140.2 L 329.5,133.7 L 323.9,128.2 L 317.2,123.5 L 309.9,119.7 L 302.2,116.3 L 294.4,113.5 L 286.7,111.0 L 279.3,108.9 L 272.1,107.2 L 265.0,105.6 L 258.3,104.2 L 251.9,102.9 L 245.9,101.7 L 240.2,100.6 L 234.6,99.6 L 229.2,98.7 L 223.7,98.0 L 218.1,97.3 L 212.0,96.8 L 205.2,96.5 L 197.8,96.3 L 190.3,96.4 L 183.1,96.7 L 176.5,97.3 L 170.2,98.2 L 164.0,99.3 L 157.6,100.4 L 150.8,101.5 L 143.8,102.5 L 136.7,103.7 L 129.5,105.1 L 122.4,106.7 L 115.3,108.6 L 108.3,110.9 L 101.1,113.5 L 93.9,116.6 L 86.6,120.5 L 79.9,125.1 L 74.1,130.6 L 69.5,136.5 L 65.9,142.6 L 63.0,148.9 L 60.3,155.4 L 57.8,162.1 L 55.3,168.8 L 53.0,175.5 L 51.0,182.2 L 49.3,189.2 L 47.7,196.5 L 46.2,204.1 L 44.7,212.0 L 43.4,219.9 L 42.4,227.9 L 41.6,235.9 L 41.3,244.0 L 41.7,252.1 L 43.2,260.3 L 46.2,267.9 L 50.7,274.5 L 56.6,279.9 L 63.5,283.9 L 71.0,286.9 L 78.5,289.3 L 86.0,291.4 L 93.5,293.1 L 101.0,294.6 L 108.4,295.9 L 115.6,296.9 L 122.5,297.8 L 129.1,298.7 L 135.5,299.5 L 141.8,300.2 L 147.8,300.9 L 153.6,301.4 L 159.1,301.8 L 164.5,302.1 L 170.2,302.3 L 176.7,302.5 L 183.9,302.9 L 191.7,303.2 L 199.6,303.2 L 207.1,303.0 L 214.0,302.5 L 220.3,302.1 L 226.3,301.9 L 232.1,301.6 L 238.0,301.3 L 244.1,301.0 L 250.3,300.5 L 256.7,299.9 L 263.2,299.1 L 270.0,298.1 L 277.3,297.0 L 285.1,295.6 L 293.2,294.2 L 301.3,292.5 L 309.3,290.7 L 317.0,288.8 L 324.7,286.6 L 332.2,284.1 L 339.5,281.0 L 346.1,277.0 L 351.6,271.8 L 355.4,265.3 L 357.4,257.6 L 357.8,249.2 L 357.0,240.5 L 355.6,231.7 L 354.1,222.9 L 352.5,214.2 Z" fill="#ccc" stroke="red" stroke-width="2"/></svg>