<svg xmlns="http://www.w3.org/2000/svg" width="400" height="400" viewBox="0 0 400 400"><rect width="100%" height="100%" fill="#eee"/><path d="M 350.0,205.3 L 348.1,197.9 L 346.0,190.3 L 343.7,182.6 L 341.3,175.0 L 339.0,167.6 L 336.5,160.4 L 333.8,153.1 L 330.7,145.8 L 327.0,138.4 L 322.5,131.0 L 317.1,124.2 L 310.9,118.3 L 304.1,113.4 L 296.7,109.6 L 289.0,106.7 L 281.3,104.6 L 273.6,103.1 L 266.0,102.0 L 258.6,101.1 L 251.4,100.5 L 244.5,100.0 L 237.8,99.7 L 231.4,99.3 L 225.0,98.8 L 218.5,98.3 L 212.0,97.8 L 205.3,97.4 L 198.2,96.9 L 190.5,96.6 L 182.5,96.3 L 174.4,96.3 L 166.6,96.4 L 159.1,96.8 L 152.0,97.2 L 145.0,97.7 L 137.9,98.1 L 130.7,98.6 L 123.2,99.2 L 115.5,100.0 L 107.6,101.0 L 99.4,102.3 L 91.0,104.0 L 82.7,106.3 L 74.7,109.4 L 67.4,113.6 L 61.2,119.1 L 56.3,126.0 L 52.6,133.7 L 50.0,141.9 L 48.2,150.2 L 46.9,158.4 L 45.9,166.5 L 45.1,174.5 L 44.3,182.4 L 43.6,190.5 L 42.9,198.8 L 42.3,207.2 L 41.8,215.4 L 41.3,223.3 L 40.9,231.2 L 40.7,239.1 L 40.7,247.4 L 41.2,255.8 L 42.7,264.1 L 45.7,271.8 L 50.5,278.3 L 56.9,283.4 L 64.4,287.1 L 72.6,289.8 L 80.9,292.0 L 89.3,293.7 L 97.6,295.1 L 105.8,296.3 L 113.7,297.5 L 121.5,298.6 L 128.9,299.5 L 136.1,300.1 L 142.9,300.5 L 149.3,301.0 L 155.4,301.4 L 161.2,301.7 L 166.7,301.9 L 171.5,302.3 L 175.7,302.7 L 179.8,303.1 L 184.3,303.4 L 189.5,303.6 L 195.4,303.6 L 201.5,303.5 L 207.1,303.2 L 212.2,303.0 L 217.0,302.9 L 221.7,303.0 L 226.7,303.1 L 232.3,303.0 L 238.4,302.8 L 244.8,302.3 L 251.4,301.7 L 258.2,301.2 L 265.4,300.7 L 273.0,300.2 L 281.0,299.6 L 289.4,298.7 L 298.1,297.7 L 306.8,296.4 L 315.3,294.8 L 323.5,292.9 L 331.4,290.4 L 338.8,287.3 L 345.6,283.1 L 351.2,277.7 L 355.2,271.0 L 357.3,263.2 L 357.9,254.7 L 357.5,245.8 L 356.4,237.0 L 355.0,228.3 L 353.4,220.2 L 351.7,212.6 Z" fill="#ccc" stroke="red" stroke-width="2"/></svg>