<svg xmlns="http://www.w3.org/2000/svg" width="400" height="400" viewBox="0 0 400 400"><rect width="100%" height="100%" fill="#eee"/><path d="M 359.4,203.1 L 358.8,194.4 L 357.7,186.3 L 356.2,178.9 L 354.4,171.8 L 352.3,164.8 L 350.0,157.7 L 347.5,150.5 L 344.8,143.2 L 341.6,135.8 L 337.9,128.1 L 333.7,120.4 L 329.1,112.8 L 324.1,105.3 L 318.7,98.1 L 312.9,91.1 L 306.8,84.4 L 300.3,78.2 L 293.5,72.4 L 286.5,67.1 L 279.3,62.1 L 272.1,57.5 L 264.7,53.6 L 257.1,50.3 L 249.4,47.5 L 241.6,45.2 L 233.8,43.2 L 225.9,41.7 L 217.6,40.7 L 208.9,40.3 L 200.1,40.4 L 191.5,40.8 L 183.3,41.5 L 175.3,42.7 L 167.3,44.3 L 159.1,46.4 L 150.6,48.9 L 142.1,51.9 L 133.8,55.5 L 125.9,59.6 L 118.2,64.2 L 110.7,69.1 L 103.4,74.5 L 96.5,80.4 L 90.0,86.9 L 83.9,93.6 L 78.3,100.4 L 73.3,107.4 L 68.7,114.5 L 64.7,121.7 L 60.9,129.0 L 57.3,136.4 L 54.0,143.9 L 51.0,151.4 L 48.6,158.8 L 46.8,166.1 L 45.5,173.3 L 44.3,180.5 L 43.0,188.1 L 41.9,196.1 L 41.0,204.8 L 40.7,213.8 L 41.0,222.8 L 41.9,231.5 L 43.4,239.9 L 45.5,248.1 L 48.1,256.3 L 51.3,264.6 L 54.9,272.9 L 58.9,281.1 L 63.4,288.9 L 68.2,296.4 L 73.4,303.5 L 79.1,310.2 L 85.2,316.6 L 91.8,322.5 L 98.7,327.9 L 105.8,332.8 L 113.0,337.2 L 120.2,341.1 L 127.6,344.5 L 135.0,347.6 L 142.5,350.3 L 150.0,352.4 L 157.4,354.1 L 164.9,355.6 L 172.3,357.0 L 179.9,358.2 L 187.7,359.1 L 195.8,359.5 L 204.3,359.4 L 212.9,358.8 L 221.2,357.9 L 229.2,356.8 L 236.7,355.5 L 243.7,353.9 L 250.4,351.9 L 257.0,349.7 L 263.8,346.9 L 271.0,343.7 L 278.5,340.1 L 285.8,336.1 L 292.9,331.7 L 299.8,326.8 L 306.6,321.6 L 313.3,315.9 L 319.7,309.9 L 325.6,303.7 L 331.0,297.5 L 335.9,290.9 L 340.3,283.9 L 344.2,276.3 L 347.8,268.1 L 350.9,259.8 L 353.5,251.8 L 355.6,244.1 L 357.2,236.6 L 358.5,228.9 L 359.3,220.7 L 359.6,212.0 Z" fill="#ccc" stroke="red" stroke-width="2"/></svg>